# xmcd
#
# Track frame offsets:
# 150
# 10671
# 19432
# 29979
# 40886
# 50752
# 62225
# 72597
# 84902
# 99037
# 109411
# 118777
# 131342
# 141627
# 152157
# 164244
# 173786
# 187429
# 204579
# 220264
# 230684
# 262667
# 276816
# 290428
# 304260
# 323366
# 340641
#
# Disc length: 4757 seconds
#
#
# Revision: 2
# Processed by: cddbd v1.5.2PL0 Copyright (c) Steve Scherf et al.
# Submitted via: FreeRIP 2.93 
#
DISCID=a012931b
DTITLE=The Beatles - The Beatles No.1 Hits 1962-1969
DYEAR=1969
DGENRE=Beat
TTITLE0=Love me do
TTITLE1=From me to you
TTITLE2=She loves you
TTITLE3=I want to hold your hand
TTITLE4=Can't buy me love
TTITLE5=A hard days night
TTITLE6=I feel fine
TTITLE7=Eight days a week
TTITLE8=Ticked to ride
TTITLE9=Help!
TTITLE10=Yesterday
TTITLE11=Day tripper
TTITLE12=We can work it out
TTITLE13=Paperback riter
TTITLE14=Yellow submarine
TTITLE15=Eleanor Rigby
TTITLE16=Penny Lane
TTITLE17=All you need is love
TTITLE18=Hello, godbye
TTITLE19=Lady Madonna
TTITLE20=Hey Jude
TTITLE21=Get back
TTITLE22=The ballad of John and Yoko
TTITLE23=Something
TTITLE24=Come together
TTITLE25=Let it be
TTITLE26=The long and winding road
EXTD=
EXTT0=
EXTT1=
EXTT2=
EXTT3=
EXTT4=
EXTT5=
EXTT6=
EXTT7=
EXTT8=
EXTT9=
EXTT10=
EXTT11=
EXTT12=
EXTT13=
EXTT14=
EXTT15=
EXTT16=
EXTT17=
EXTT18=
EXTT19=
EXTT20=
EXTT21=
EXTT22=
EXTT23=
EXTT24=
EXTT25=
EXTT26=
PLAYORDER=
